<svg width="40" height="40" viewBox="0 0 40 40" fill="none" xmlns="http://www.w3.org/2000/svg">
    <g clip-path="url(#clip0_369_369)">
        <path
            d="M24.3004 21.0035H15.6996C7.58299 21.0035 1 28.093 1 36.8361C1 38.5847 2.31643 40.0035 3.93991 40.0035H36.0618C37.6853 40.0063 39 38.5902 39 36.8361C39 28.093 32.4179 21.0035 24.3004 21.0035Z"
            fill="#338DF6" />
        <path
            d="M13.6016 15.3949C15.3359 17.0824 17.4688 17.9496 20 17.9965C22.5313 17.9496 24.6641 17.0824 26.3984 15.3949C28.0859 13.6605 28.9531 11.5277 29 8.99646C28.9531 6.46521 28.0859 4.3324 26.3984 2.59802C24.6641 0.910522 22.5313 0.043335 20 -0.00354004C17.4688 0.043335 15.3359 0.910522 13.6016 2.59802C11.9141 4.3324 11.0469 6.46521 11 8.99646C11.0469 11.5277 11.9141 13.6605 13.6016 15.3949Z"
            fill="#99C6FB" />
    </g>
    <defs>
        <clipPath id="clip0_369_369">
            <rect width="40" height="40" rx="20" fill="white" />
        </clipPath>
    </defs>
</svg>
