<svg width="44" height="44" viewBox="0 0 44 44" fill="none" xmlns="http://www.w3.org/2000/svg">
<path d="M42.9406 36.3873C43.3119 36.9438 43.349 37.5352 43.052 38.1613C42.6807 38.7178 42.1609 38.9961 41.4926 38.9961H2.50743C1.76485 38.9961 1.24505 38.683 0.94802 38.0569C0.65099 37.5004 0.688119 36.9438 1.05941 36.3873L8.85644 26.3694C9.22772 25.8824 9.7104 25.639 10.3045 25.639C10.8985 25.639 11.3812 25.8824 11.7525 26.3694L15.3168 30.9609L25.7871 16.4559C26.1584 15.8994 26.6411 15.6211 27.2351 15.6211C27.8292 15.6211 28.3119 15.8646 28.6832 16.3516L42.9406 36.3873Z" fill="#338DF6"/>
<path d="M9.89193 6.70223C11.0282 5.64711 12.408 5.07897 14.0312 4.9978C15.6545 5.07897 17.0343 5.64711 18.1706 6.70223C19.3069 7.83851 19.875 9.21829 19.875 10.8416C19.875 12.4648 19.3069 13.8446 18.1706 14.9809C17.1155 16.036 15.7357 16.6041 14.0312 16.6853C12.3268 16.6041 10.947 16.036 9.89193 14.9809C8.83681 13.8446 8.26866 12.4648 8.1875 10.8416C8.26866 9.21829 8.83681 7.83851 9.89193 6.70223Z" fill="#99C6FB"/>
</svg>
